<?xml version="1.0" encoding="utf-8"?>
<!-- Generator: Adobe Illustrator 26.1.0, SVG Export Plug-In . SVG Version: 6.00 Build 0)  -->
<svg version="1.1" id="Lager_1" xmlns="http://www.w3.org/2000/svg" xmlns:xlink="http://www.w3.org/1999/xlink" x="0px" y="0px"
	 viewBox="0 0 283.5 283.5" style="enable-background:new 0 0 283.5 283.5;" xml:space="preserve">
<style type="text/css">
	.st0{fill:none;stroke:#000000;stroke-width:7;stroke-linecap:round;stroke-linejoin:round;stroke-miterlimit:10;}
	.st1{stroke:#000000;stroke-width:7;stroke-miterlimit:10;}
</style>
<g id="lamb_sheep">
	<polyline class="st0" points="186.5,190.9 177.8,249.1 160.4,249.1 156.1,223.9 	"/>
	<polyline class="st0" points="73.3,207.1 86.8,249.1 69,249.1 55.9,227.7 55.9,219.7 	"/>
	<path class="st0" d="M217,129.4v27.4c0,18.5-15.6,33.5-34.8,33.5c-5.8,0-11.3-1.4-16.1-3.8c1.9,2.2,3.1,5,3.1,8
		c0,6.9-5.8,12.6-13.1,12.6c-4,0-7.5-1.7-9.9-4.4c-6.5,10.2-18.2,17-31.5,17c-13.6,0-25.4-7-31.8-17.5c-3.8,3-8.6,4.9-13.9,4.9
		c-12,0-21.8-9.4-21.8-21c0-0.1,0-0.2,0-0.3c-17.2-2.1-30.5-16.1-30.5-33.3v-8.4"/>
	<path class="st0" d="M34.1,93.9c0-6.9-5.8-12.6-13.1-12.6S8,87,8,93.9v12.6c0,11.6,5.8,21,13.1,21c2.9,0,5.7-1.6,7.8-4.2"/>
	<path class="st0" d="M217,129.4c5.3-4.6,8.7-11.3,8.7-18.8c0-5.7-2.1-11-5.5-15.2c-2.2-2.7-3.2-6.2-3.2-9.7v-8
		c0-3.6,2.4-6.8,5.9-7.9c2.9-0.9,7.2-1.7,13.1-1.8c5.3-0.1,10.1-3.6,10.7-8.7c0.7-5.9-4.1-10.9-10.1-10.9c-3.7,0-7,2-8.7,4.9
		c-2.3-3.4-6.3-5.6-10.9-5.6c-3.7,0-7,1.5-9.3,3.8c-3.5-2.4-7.8-3.8-12.4-3.8c-7.8,0-14.6,4-18.4,9.9c-3.1-10.6-13.2-18.3-25.1-18.3
		c-8,0-15.2,3.5-19.9,8.9c-6.2-5.5-14.5-8.9-23.6-8.9c-14.9,0-27.5,9-32.5,21.6c-2.2-0.4-4.4-0.6-6.7-0.6c-19.2,0-34.8,15-34.8,33.5
		"/>
	<path class="st0" d="M195.3,77.1c4.3,4.2,4.3,7.5,4.3,16.8s-5.8,16.8-13.1,16.8s-13.1-7.5-13.1-16.8s0-12.6,4.3-16.8"/>
	<ellipse class="st1" cx="234.4" cy="85.5" rx="4.3" ry="4.2"/>
	<path class="st0" d="M225.7,110.7l22.6,8.4l3.1,3c3.2,3.1,8.3,3.3,11.7,0.5l10.2-8.2c5.5-4.4,6.3-12.2,1.8-17.5L246,62"/>
</g>
</svg>
