<?xml version="1.0" encoding="utf-8"?>
<!-- Generator: Adobe Illustrator 26.1.0, SVG Export Plug-In . SVG Version: 6.00 Build 0)  -->
<svg version="1.1" id="Lager_1" xmlns="http://www.w3.org/2000/svg" xmlns:xlink="http://www.w3.org/1999/xlink" x="0px" y="0px"
	 viewBox="0 0 283.5 283.5" style="enable-background:new 0 0 283.5 283.5;" xml:space="preserve">
<style type="text/css">
	.st0{fill:none;stroke:#FFFFFF;stroke-width:8;stroke-linecap:round;stroke-linejoin:round;stroke-miterlimit:10;}
	.st1{fill:none;stroke:#FFFFFF;stroke-width:8;stroke-linecap:round;stroke-linejoin:bevel;stroke-miterlimit:10;}
</style>
<g>
	<g>
		<line class="st0" x1="39.2" y1="272.1" x2="247.9" y2="272.1"/>
		<g>
			<g>
				<g>
					<line class="st0" x1="63.2" y1="271" x2="53.5" y2="253.4"/>
					<line class="st0" x1="63.9" y1="271" x2="73.6" y2="253.4"/>
				</g>
				<g>
					<line class="st0" x1="104.6" y1="271" x2="94.8" y2="253.4"/>
					<line class="st0" x1="105.3" y1="271" x2="115" y2="253.4"/>
				</g>
			</g>
			<g>
				<g>
					<line class="st0" x1="181.7" y1="271" x2="172" y2="253.4"/>
					<line class="st0" x1="182.4" y1="271" x2="192.2" y2="253.4"/>
				</g>
				<g>
					<line class="st0" x1="223.1" y1="271" x2="213.4" y2="253.4"/>
					<line class="st0" x1="223.8" y1="271" x2="233.5" y2="253.4"/>
				</g>
			</g>
		</g>
	</g>
	<g>
		<polygon class="st0" points="240.8,137.9 46.2,137.9 56.6,178.6 96.9,178.6 96.9,222.1 190.1,222.1 190.1,178.6 230.4,178.6 		"/>
		<g>
			<line class="st0" x1="22" y1="158.2" x2="35.4" y2="158.2"/>
			<line class="st0" x1="265" y1="158.2" x2="251.6" y2="158.2"/>
		</g>
		<g>
			<path class="st1" d="M190.3,86.6c-2.6,6.1-6.3,11.5-10.9,16.1c-4.6,4.6-10.1,8.3-16.2,10.9c-6.1,2.6-12.8,4-19.8,4
				c-7,0-13.7-1.4-19.8-4c-6.1-2.6-11.5-6.3-16.1-10.9c-4.6-4.6-8.3-10.1-10.9-16.1"/>
			<g>
				<path class="st0" d="M217.5,82.4C214.9,73.2,194,52,186.2,52h-85.4c-7.9,0-28.7,21.2-31.3,30.4H217.5z"/>
				<g>
					<path class="st0" d="M185.8,52l-7.2-22.2c-1.9-6.8-7.6-15.7-12.8-19.8c0,0-2.3-1.8-21.7-1.8S122.3,10,122.3,10
						c-5.2,4-11,12.9-12.8,19.8L102.3,52H185.8z"/>
				</g>
			</g>
		</g>
		<line class="st0" x1="143.5" y1="224.5" x2="143.5" y2="272.1"/>
	</g>
</g>
</svg>
