<?xml version="1.0" encoding="utf-8"?>
<!-- Generator: Adobe Illustrator 26.1.0, SVG Export Plug-In . SVG Version: 6.00 Build 0)  -->
<svg version="1.1" id="Lager_1" xmlns="http://www.w3.org/2000/svg" xmlns:xlink="http://www.w3.org/1999/xlink" x="0px" y="0px"
	 viewBox="0 0 283.46 283.46" style="enable-background:new 0 0 283.46 283.46;" xml:space="preserve">
<style type="text/css">
	.st0{fill:none;stroke:#000000;stroke-width:8;stroke-linecap:round;stroke-linejoin:round;stroke-miterlimit:10;}
	.st1{fill:none;stroke:#000000;stroke-width:8;stroke-linecap:round;stroke-linejoin:bevel;stroke-miterlimit:10;}
</style>
<g>
	<g>
		<line class="st0" x1="39.15" y1="272.09" x2="247.87" y2="272.09"/>
		<g>
			<g>
				<g>
					<line class="st0" x1="63.23" y1="271.01" x2="53.5" y2="253.45"/>
					<line class="st0" x1="63.92" y1="271.01" x2="73.64" y2="253.45"/>
				</g>
				<g>
					<line class="st0" x1="104.58" y1="271.01" x2="94.85" y2="253.45"/>
					<line class="st0" x1="105.27" y1="271.01" x2="114.99" y2="253.45"/>
				</g>
			</g>
			<g>
				<g>
					<line class="st0" x1="181.74" y1="271.01" x2="172" y2="253.45"/>
					<line class="st0" x1="182.42" y1="271.01" x2="192.16" y2="253.45"/>
				</g>
				<g>
					<line class="st0" x1="223.11" y1="271.01" x2="213.36" y2="253.45"/>
					<line class="st0" x1="223.77" y1="271.01" x2="233.52" y2="253.45"/>
				</g>
			</g>
		</g>
	</g>
	<g>
		<polygon class="st0" points="240.78,137.87 46.23,137.87 56.62,178.64 96.95,178.64 96.95,222.07 190.1,222.07 190.1,178.64 
			230.39,178.64 		"/>
		<g>
			<line class="st0" x1="22.02" y1="158.25" x2="35.41" y2="158.25"/>
			<line class="st0" x1="264.99" y1="158.25" x2="251.61" y2="158.25"/>
		</g>
		<g>
			<path class="st1" d="M190.28,86.61c-2.59,6.08-6.3,11.54-10.87,16.13c-4.62,4.59-10.07,8.3-16.16,10.88
				c-6.07,2.57-12.76,3.98-19.75,3.98c-7.01,0-13.68-1.42-19.75-3.98c-6.05-2.58-11.52-6.28-16.14-10.88
				c-4.58-4.59-8.28-10.05-10.88-16.13"/>
			<g>
				<path class="st0" d="M217.54,82.4c-2.65-9.25-23.49-30.42-31.33-30.42H100.8c-7.86,0-28.7,21.16-31.32,30.42H217.54z"/>
				<g>
					<path class="st0" d="M185.8,51.98l-7.21-22.25c-1.86-6.82-7.65-15.72-12.84-19.76c0,0-2.28-1.77-21.74-1.77
						s-21.74,1.77-21.74,1.77c-5.2,4.04-10.98,12.94-12.83,19.76l-7.18,22.25H185.8z"/>
				</g>
			</g>
		</g>
		<line class="st0" x1="143.5" y1="224.48" x2="143.5" y2="272.09"/>
	</g>
</g>
</svg>
