<?xml version="1.0" encoding="utf-8"?>
<!-- Generator: Adobe Illustrator 26.1.0, SVG Export Plug-In . SVG Version: 6.00 Build 0)  -->
<svg version="1.1" id="Lager_1" xmlns="http://www.w3.org/2000/svg" xmlns:xlink="http://www.w3.org/1999/xlink" x="0px" y="0px"
	 viewBox="0 0 283.5 283.5" style="enable-background:new 0 0 283.5 283.5;" xml:space="preserve">
<style type="text/css">
	.st0{fill:none;stroke:#FFFFFF;stroke-width:7;stroke-miterlimit:10;}
	.st1{fill:none;stroke:#FFFFFF;stroke-miterlimit:10;}
</style>
<path class="st0" d="M108.8,275.4c4.2-0.5-50.7,3.3-68.2-8.7S12.7,233.1,16,215.1s14.9-40.2,20.1-56.8s-7-60.3,0.7-62
	c8.6-1.9,35,29.1,31.9,24.9"/>
<path class="st0" d="M46.5,232.2c-1.2,6.5,9.9-56.3,21.7-84.5s57.5-77,54.5-73.7"/>
<path class="st0" d="M180.6,153.3c-0.2,7.1,0.3-19.9-2.8-27.5s-12.2-22.8-12.9-29.5s15.2-20.1,26.6-19.9c11.3,0.2,22.4,5.1,29.3,3
	c6.9-2.1,13.9-19.9,9.2-25.9s-21.9-6.9-25.4-10.6c-3.5-3.7,2.7-19.4-29.4-31.6S119,32,119,50s-1.4,21.7,11.1,29.1
	s25.9-10.4,27.9-19.9s-3.7-17.5-5.3-21.7s7.8-14.5,4-10.2"/>
<path class="st0" d="M183.8,231.3c-3.7-1.6,8.8,3.2,10.2,13.4s-7.6,14.1-5.1,15.9c2.5,1.9,10.8-1.7,12.2,0c1.5,1.7,9.7,11,7.4,13.2
	c-2.3,2.1-54.6,4.1-60.8,0.9s-23-9.5-27.2-26.8s14.1-46.6,10.2-59.4c-3.9-12.7-28.9-20.1-23.1-27.7c5.8-7.6,33.2,12.2,33.2,12.2
	l6.8,16.6"/>
<path class="st0" d="M147.7,252.3c0,5.1-2.3-41,10.1-59.3s39.1-16.6,40.8-20.1s4.9-36.4,29.3-46.2c4.5,2.4,2.2,12.6,4.6,13.2
	c2.4,0.5,10.6-0.2,13.6,3c3.1,3.2,1.7,11.1,3.2,11.6s8.7-1.3,10.2,3.6c4.4,14.9-18.7,17.9-20.3,22.2c-1.6,4.2-1.1,24-2.8,31.2
	c-1.6,7.2-14,16.3-13.9,21.2c0.1,5-4.5,22.6-1.9,22.6c8.7-0.4,9.1,1.7,12.7,5.5s8,14,4.9,14.7s-18.3-0.3-13.4,0"/>
<ellipse class="st1" cx="235.8" cy="153.3" rx="3.5" ry="3.4"/>
<ellipse class="st1" cx="187.8" cy="40.5" rx="3.5" ry="3.4"/>
</svg>
