<?xml version="1.0" encoding="utf-8"?>
<!-- Generator: Adobe Illustrator 26.1.0, SVG Export Plug-In . SVG Version: 6.00 Build 0)  -->
<svg version="1.1" id="Lager_1" xmlns="http://www.w3.org/2000/svg" xmlns:xlink="http://www.w3.org/1999/xlink" x="0px" y="0px"
	 viewBox="0 0 283.46 283.46" style="enable-background:new 0 0 283.46 283.46;" xml:space="preserve">
<style type="text/css">
	.st0{fill:none;stroke:#000000;stroke-width:7;stroke-miterlimit:10;}
</style>
<path class="st0" d="M108.8,275.38c4.16-0.52-50.74,3.29-68.24-8.66s-27.88-33.6-24.59-51.61s14.89-40.18,20.09-56.81
	s-7.05-60.32,0.69-62c8.58-1.87,34.98,29.1,31.87,24.94"/>
<path class="st0" d="M46.45,232.2c-1.15,6.47,9.93-56.34,21.71-84.52s57.53-77,54.46-73.66"/>
<path class="st0" d="M180.61,153.26c-0.23,7.12,0.34-19.89-2.77-27.51c-3.11-7.62-12.24-22.79-12.93-29.52s15.24-20.12,26.56-19.89
	c11.31,0.23,22.4,5.08,29.33,3c6.93-2.08,13.86-19.86,9.24-25.86s-21.94-6.93-25.4-10.62c-3.46-3.69,2.7-19.4-29.4-31.64
	S118.98,32,118.98,50.01s-1.41,21.7,11.06,29.09c12.47,7.39,25.86-10.39,27.94-19.86c2.08-9.47-3.69-17.55-5.31-21.71
	c-1.62-4.16,7.8-14.49,3.99-10.17"/>
<path class="st0" d="M183.84,231.28c-3.69-1.62,8.77,3.23,10.16,13.39c1.39,10.16-7.62,14.09-5.08,15.93
	c2.54,1.85,10.77-1.74,12.24,0c1.46,1.74,9.7,11.05,7.39,13.16c-2.31,2.11-54.63,4.06-60.83,0.92s-23-9.47-27.15-26.79
	s14.09-46.65,10.16-59.35c-3.93-12.7-28.86-20.12-23.09-27.71c5.77-7.59,33.25,12.24,33.25,12.24l6.83,16.63"/>
<path class="st0" d="M147.73,252.29c0,5.08-2.27-40.99,10.14-59.35c12.41-18.36,39.14-16.63,40.75-20.09s4.95-36.37,29.33-46.18
	c4.5,2.37,2.25,12.64,4.62,13.16c2.37,0.52,10.56-0.17,13.62,3c3.06,3.18,1.72,11.07,3.23,11.61s8.72-1.28,10.16,3.63
	c4.39,14.95-18.7,17.95-20.32,22.17c-1.62,4.21-1.15,24.02-2.77,31.17c-1.62,7.16-13.97,16.28-13.86,21.25
	c0.12,4.96-4.5,22.63-1.85,22.63c8.72-0.35,9.06,1.73,12.7,5.54c3.64,3.81,7.97,13.97,4.85,14.73s-18.3-0.34-13.39,0"/>
<ellipse cx="235.8" cy="153.26" rx="3.54" ry="3.41"/>
<ellipse cx="187.77" cy="40.54" rx="3.54" ry="3.41"/>
</svg>
