<?xml version="1.0" encoding="utf-8"?>
<!-- Generator: Adobe Illustrator 26.1.0, SVG Export Plug-In . SVG Version: 6.00 Build 0)  -->
<svg version="1.1" id="Lager_1" xmlns="http://www.w3.org/2000/svg" xmlns:xlink="http://www.w3.org/1999/xlink" x="0px" y="0px"
	 viewBox="0 0 1000 1000" style="enable-background:new 0 0 1000 1000;" xml:space="preserve">
<style type="text/css">
	.st0{fill:none;stroke:#000000;stroke-width:21;stroke-miterlimit:10;}
	.st1{fill:none;stroke:#000000;stroke-width:15;stroke-miterlimit:10;}
</style>
<path class="st0" d="M554.4,574.6c-7.9-14.5,33.5,55.8,46.4,152.4c11.6,87.1,0.9,203.8,8.8,206.7c16.6,6.1,121.7-119.1,216.3-242.6
	s172.5-63.9,155.9-94.6c-16.6-30.6-79.7-242.6-213.7-330.2s-340.7-108.6-288.6-102"/>
<path class="st0" d="M419.5,207.6c-7,17.5,14.9-42.9,5.3-74.4c-9.6-31.5-71.8-66.6-85.8-66.6s42,120.9,24.5,132.2
	c-17.5,11.4-107.7,67.4-121.7,95.5c-14,28-12.3,65.7-28,87.6S21,554.4,21,580.7c0,26.3,25.4,81.4,62.2,81.4s126.9-107.9,101.6-79.7"
	/>
<path class="st0" d="M131.3,693.7c-14.9,0.3,42.9,3.5,62.2-14s14-39.2,22.8-46.4c13.9-11.4,197.1-76.2,197.1-76.2"/>
<path class="st0" d="M548.2,384.5c-14.9-20.1,21,37.7,13.1,77.1c-7.9,39.4-47.3,92.8-107.7,99.8s-129.6-63.9-98.1-34.2"/>
<path class="st0" d="M595.5,305.7c17.5,8.8-46.4-22.8-59.5-66.6s-27.6-64.8-27.6-64.8"/>
<path class="st0" d="M690.1,380.4c19.3,7.6-29.8-9.9-40.3-63.3C639.3,263.7,618.3,205,618.3,205"/>
<path class="st0" d="M760.2,438c7.9,41.2-32.9-124.9-25.4-96.3c7.5,28.5-17.8-88.2-23.6-107"/>
<path class="st0" d="M878.4,535.2c33.3,13.3-38.5-7.2-47.3-64c-8.8-56.9-4.3-154.8-4.3-154.8"/>
<path class="st1" d="M295.6,352.3c-0.9-8.9-0.2,27.5,31.5,29.8c31.7,2.2,37.8-40.6,35.3-28"/>
</svg>
