<?xml version="1.0" encoding="utf-8"?>
<!-- Generator: Adobe Illustrator 26.1.0, SVG Export Plug-In . SVG Version: 6.00 Build 0)  -->
<svg version="1.1" id="Lager_1" xmlns="http://www.w3.org/2000/svg" xmlns:xlink="http://www.w3.org/1999/xlink" x="0px" y="0px"
	 viewBox="0 0 283.46 283.46" style="enable-background:new 0 0 283.46 283.46;" xml:space="preserve">
<style type="text/css">
	.st0{fill:none;stroke:#000000;stroke-width:7;stroke-linecap:round;stroke-linejoin:round;stroke-miterlimit:10;}
	.st1{stroke:#000000;stroke-width:7;stroke-miterlimit:10;}
</style>
<g id="chicken_-_hen_1_">
	<path class="st0" d="M181.83,164.91c-8.72,9.8-23.91,16.22-40.09,16.22s-30.59-6.76-39.31-16.57c-1.47,0.45-3.16,0.35-4.79,0.35
		c-8.86,0-16.59-7.28-16.04-16.22c0.13-2.01,0.67-6.41,4.01-8.11H73.57c-4.43,0-8.02-3.63-8.02-8.11c0-4.48,3.59-8.11,8.02-8.11
		c4.01,0,52.12,0,72.17,0"/>
	<ellipse class="st1" cx="221.92" cy="71.65" rx="4.01" ry="4.05"/>
	<path class="st0" d="M234.33,124.34c1.82,2.47,6.35,4.07,9.64,4.07c5.54,0,10.02-4.54,10.02-10.14c0-14.19-24.06-26.36-24.06-26.36
		"/>
	<path class="st0" d="M192.37,59.4c-8.18-0.82-14.56-7.74-14.56-16.14c0-8.96,7.25-16.22,16.2-16.22c2.94,0,5.66,0.84,8.04,2.22
		c0.92-8.08,7.69-14.38,16.01-14.38c7.24,0,13.28,4.78,15.36,11.33c2.52-2.01,5.49-3.22,8.69-3.22c8.96,0,16.2,9.08,16.2,20.27
		s-10.45,23.52-19.41,23.52"/>
	<path class="st0" d="M181.83,116.25c0,7.84,6.28,14.19,14.03,14.19c3.93,0,7.48-1.53,10.03-4.17c0,6.72,6.27,12.28,14.02,12.28
		c7.75,0,14.03-6.08,14.03-14.19"/>
	<path class="st0" d="M229.94,91.92c12.03,0,36.08,0,36.08,0c0-12.16-12.03-20.27-28.07-26.6"/>
	<path class="st0" d="M234.04,124.36c-1.5-16.61-4.11-32.44-4.11-32.44s8.02-12.16,8.02-24.33c0-13.43-10.77-24.33-24.06-24.33
		s-20.05,8.11-24.06,24.33c-1.38,5.56-4.01,24.33-28.07,32.44c-38.79,13.08-64.15-8.11-64.15-8.11S69.56,75.7,61.55,44.95
		c0-4.47-3.59-8.11-8.02-8.11s-8.02,3.64-8.02,8.11c0-7.83-6.28-14.19-14.03-14.19c-7.75,0-14.02,6.36-14.03,14.19
		c-0.01,6.76,7.35,17.32,12.03,22.39c-27.06,12.42,3.34,40.8,3.34,40.8s-8.86-1.6-11.36,8.36c-3.78,15.04,15.29,24.08,15.29,24.08
		c4.01,28.38,20.8,48.66,28.82,56.77c6.71,6.78,33.05,22.04,60.26,26.86c-0.03,0.51-0.12,1-0.12,1.53c0,11.2,7.18,20.27,16.04,20.27
		s16.04-9.08,16.04-20.27c0-0.56-0.1-1.08-0.13-1.63c25.11-4.94,45.6-20.02,52.25-26.75c8.02-8.11,20.05-24.33,24.06-44.6"/>
	<line class="st0" x1="141.38" y1="246" x2="164.41" y2="270.76"/>
</g>
</svg>
