<?xml version="1.0" encoding="utf-8"?>
<!-- Generator: Adobe Illustrator 26.1.0, SVG Export Plug-In . SVG Version: 6.00 Build 0)  -->
<svg version="1.1" id="Lager_1" xmlns="http://www.w3.org/2000/svg" xmlns:xlink="http://www.w3.org/1999/xlink" x="0px" y="0px"
	 viewBox="0 0 283.5 283.5" style="enable-background:new 0 0 283.5 283.5;" xml:space="preserve">
<style type="text/css">
	.st0{fill:none;stroke:#FFFFFF;stroke-width:7;stroke-linecap:round;stroke-linejoin:round;stroke-miterlimit:10;}
	.st1{stroke:#FFFFFF;stroke-width:7;stroke-miterlimit:10;}
</style>
<g id="chicken_-_hen_1_">
	<path class="st0" d="M181.8,164.9c-8.7,9.8-23.9,16.2-40.1,16.2s-30.6-6.8-39.3-16.6c-1.5,0.4-3.2,0.4-4.8,0.4
		c-8.9,0-16.6-7.3-16-16.2c0.1-2,0.7-6.4,4-8.1h-12c-4.4,0-8-3.6-8-8.1c0-4.5,3.6-8.1,8-8.1c4,0,52.1,0,72.2,0"/>
	<ellipse class="st1" cx="221.9" cy="71.7" rx="4" ry="4.1"/>
	<path class="st0" d="M234.3,124.3c1.8,2.5,6.4,4.1,9.6,4.1c5.5,0,10-4.5,10-10.1c0-14.2-24.1-26.4-24.1-26.4"/>
	<path class="st0" d="M192.4,59.4c-8.2-0.8-14.6-7.7-14.6-16.1c0-9,7.2-16.2,16.2-16.2c2.9,0,5.7,0.8,8,2.2
		c0.9-8.1,7.7-14.4,16-14.4c7.2,0,13.3,4.8,15.4,11.3c2.5-2,5.5-3.2,8.7-3.2c9,0,16.2,9.1,16.2,20.3s-10.4,23.5-19.4,23.5"/>
	<path class="st0" d="M181.8,116.2c0,7.8,6.3,14.2,14,14.2c3.9,0,7.5-1.5,10-4.2c0,6.7,6.3,12.3,14,12.3s14-6.1,14-14.2"/>
	<path class="st0" d="M229.9,91.9c12,0,36.1,0,36.1,0c0-12.2-12-20.3-28.1-26.6"/>
	<path class="st0" d="M234,124.4c-1.5-16.6-4.1-32.4-4.1-32.4s8-12.2,8-24.3c0-13.4-10.8-24.3-24.1-24.3s-20.1,8.1-24.1,24.3
		c-1.4,5.6-4,24.3-28.1,32.4c-38.8,13.1-64.2-8.1-64.2-8.1S69.6,75.7,61.5,45c0-4.5-3.6-8.1-8-8.1s-8,3.6-8,8.1
		c0-7.8-6.3-14.2-14-14.2s-14,6.4-14,14.2c0,6.8,7.4,17.3,12,22.4c-27.1,12.4,3.3,40.8,3.3,40.8s-8.9-1.6-11.4,8.4
		c-3.8,15,15.3,24.1,15.3,24.1c4,28.4,20.8,48.7,28.8,56.8c6.7,6.8,33,22,60.3,26.9c0,0.5-0.1,1-0.1,1.5c0,11.2,7.2,20.3,16,20.3
		s16-9.1,16-20.3c0-0.6-0.1-1.1-0.1-1.6c25.1-4.9,45.6-20,52.2-26.8c8-8.1,20.1-24.3,24.1-44.6"/>
	<line class="st0" x1="141.4" y1="246" x2="164.4" y2="270.8"/>
</g>
</svg>
