<?xml version="1.0" encoding="utf-8"?>
<!-- Generator: Adobe Illustrator 26.1.0, SVG Export Plug-In . SVG Version: 6.00 Build 0)  -->
<svg version="1.1" id="Lager_1" xmlns="http://www.w3.org/2000/svg" xmlns:xlink="http://www.w3.org/1999/xlink" x="0px" y="0px"
	 viewBox="0 0 283.46 283.46" style="enable-background:new 0 0 283.46 283.46;" xml:space="preserve">
<style type="text/css">
	.st0{fill:none;stroke:#020203;stroke-width:8;stroke-linecap:round;stroke-miterlimit:10;}
</style>
<g>
	<g>
		<path class="st0" d="M264.03,141.73c0,10.38-18.15,18.24-20.71,27.82c-2.65,9.91,9.06,25.77,4.04,34.45
			c-5.09,8.8-24.73,6.56-31.87,13.7c-7.14,7.14-4.9,26.78-13.7,31.87c-8.67,5.02-24.54-6.69-34.44-4.04
			c-9.58,2.56-17.44,20.7-27.82,20.7c-10.38,0-18.24-18.15-27.82-20.71c-9.91-2.65-25.77,9.06-34.45,4.04
			c-8.8-5.09-6.56-24.73-13.7-31.87c-7.14-7.14-26.78-4.9-31.87-13.7c-5.02-8.67,6.69-24.54,4.04-34.44
			c-2.56-9.58-20.7-17.44-20.7-27.82c0-10.38,18.15-18.24,20.71-27.82c2.65-9.91-9.06-25.77-4.04-34.45
			c5.09-8.8,24.73-6.56,31.87-13.7c7.14-7.14,4.9-26.78,13.7-31.87c8.67-5.02,24.54,6.69,34.44,4.04
			c9.58-2.56,17.44-20.7,27.82-20.7c10.38,0,18.24,18.15,27.82,20.71c9.91,2.65,25.77-9.06,34.45-4.04
			c8.8,5.09,6.56,24.73,13.7,31.87c7.14,7.14,26.78,4.9,31.87,13.7c5.02,8.67-6.69,24.54-4.04,34.44
			C245.89,123.49,264.03,131.35,264.03,141.73z"/>
	</g>
	<g>
		<circle class="st0" cx="103.99" cy="106.86" r="17"/>
		<circle class="st0" cx="175.83" cy="178.71" r="17"/>
		<line class="st0" x1="93.9" y1="188.68" x2="185.81" y2="96.77"/>
	</g>
</g>
</svg>
