<?xml version="1.0" encoding="utf-8"?>
<!-- Generator: Adobe Illustrator 26.1.0, SVG Export Plug-In . SVG Version: 6.00 Build 0)  -->
<svg version="1.1" id="Layer_1" xmlns="http://www.w3.org/2000/svg" xmlns:xlink="http://www.w3.org/1999/xlink" x="0px" y="0px"
	 viewBox="0 0 50 51" style="enable-background:new 0 0 50 51;" xml:space="preserve">
<style type="text/css">
	.st0{fill:none;stroke:#FFFFFF;stroke-width:1.5;stroke-linecap:round;stroke-linejoin:round;stroke-miterlimit:10;}
	.st1{fill:#FFFFFF;stroke:#FFFFFF;stroke-miterlimit:10;}
</style>
<path class="st0" d="M12.9,12.8c-1.5-2-4.9-7.1-0.6-11.6c0.9,2.6,2,4.3,3.6,6.3"/>
<path class="st0" d="M6.2,17.7H0.9c0,0,0.7,6.6,9.2,7.2"/>
<path class="st0" d="M37.4,12.8c1.5-2,4.9-7.1,0.7-11.5c-0.9,2.6-2,4.3-3.6,6.3"/>
<path class="st0" d="M44.1,17.7h5.3c0,0-0.7,6.6-9.2,7.2"/>
<path class="st0" d="M25.2,10c0,0-2.3,0-6,0c-3.6,0-9.5,3.3-9.5,10.9s4.9,11.6,4.9,15.8s0,6.2,0,6.2"/>
<path class="st0" d="M35.7,42.9c0,3.6-4.7,6.6-10.5,6.6s-10.5-2.9-10.5-6.6c0-3.6,4.7-6.6,10.5-6.6C31,36.4,35.7,39.3,35.7,42.9z"/>
<path class="st1" d="M21.2,43.8c0,0.8-0.6,1.4-1.4,1.4c-0.8,0-1.4-0.6-1.4-1.4c0-0.8,0.6-1.4,1.4-1.4C20.6,42.4,21.2,43,21.2,43.8z"
	/>
<path class="st1" d="M27.2,43.8c0,0.8,0.6,1.4,1.4,1.4c0.8,0,1.4-0.6,1.4-1.4c0-0.8-0.6-1.4-1.4-1.4C27.8,42.4,27.2,43,27.2,43.8z"
	/>
<path class="st0" d="M21.9,25.4c0,1.4-1.1,2.5-2.4,2.5c-1.3,0-2.4-1.1-2.4-2.5"/>
<path class="st0" d="M29.3,25.4c0,1.4,1.1,2.5,2.4,2.5c1.3,0,2.4-1.1,2.4-2.5"/>
<path class="st0" d="M25.2,10c0,0,2.3,0,6,0c3.6,0,9.5,3.3,9.5,10.9s-4.9,11.6-4.9,15.8s0,6.2,0,6.2"/>
</svg>
