<svg width="50" height="51" viewBox="0 0 50 51" fill="none" xmlns="http://www.w3.org/2000/svg">
<path d="M12.8849 12.8385C11.4131 10.8082 8.01614 5.71401 12.2367 1.26172C13.1096 3.86829 14.2544 5.5807 15.811 7.54332" stroke="#242629" stroke-width="1.5" stroke-miterlimit="10" stroke-linecap="round" stroke-linejoin="round"/>
<path d="M6.21117 17.7129H0.942383C0.942383 17.7129 1.66354 24.3411 10.1913 24.9563" stroke="#242629" stroke-width="1.5" stroke-miterlimit="10" stroke-linecap="round" stroke-linejoin="round"/>
<path d="M37.434 12.8036C38.9039 10.7733 42.3402 5.71401 38.1197 1.26172C37.2468 3.86829 36.102 5.5807 34.5454 7.54332" stroke="#242629" stroke-width="1.5" stroke-miterlimit="10" stroke-linecap="round" stroke-linejoin="round"/>
<path d="M44.1447 17.7129H49.4135C49.4135 17.7129 48.6923 24.3411 40.1646 24.9563" stroke="#242629" stroke-width="1.5" stroke-miterlimit="10" stroke-linecap="round" stroke-linejoin="round"/>
<path d="M25.1778 10.0352C25.1778 10.0352 22.8429 10.0352 19.2214 10.0352C15.5998 10.0352 9.72217 13.2877 9.72217 20.9536C9.72217 28.6195 14.6402 32.5447 14.6402 36.7058C14.6402 40.8669 14.6402 42.9361 14.6402 42.9361" stroke="#242629" stroke-width="1.5" stroke-miterlimit="10" stroke-linecap="round" stroke-linejoin="round"/>
<path d="M35.7153 42.9365C35.7153 46.5705 30.9982 49.5175 25.1777 49.5175C19.3572 49.5175 14.6401 46.5726 14.6401 42.9365C14.6401 39.3025 19.3592 36.3555 25.1777 36.3555C30.9982 36.3555 35.7153 39.3025 35.7153 42.9365Z" stroke="#242629" stroke-width="1.5" stroke-miterlimit="10" stroke-linecap="round" stroke-linejoin="round"/>
<path d="M21.189 43.8081C21.189 44.5956 20.5762 45.2334 19.8196 45.2334C19.063 45.2334 18.4502 44.5956 18.4502 43.8081C18.4502 43.0206 19.063 42.3828 19.8196 42.3828C20.5762 42.3808 21.189 43.0206 21.189 43.8081Z" fill="#242629"/>
<path d="M27.2065 43.8081C27.2065 44.5956 27.8193 45.2334 28.576 45.2334C29.3326 45.2334 29.9454 44.5956 29.9454 43.8081C29.9454 43.0206 29.3326 42.3828 28.576 42.3828C27.8213 42.3808 27.2065 43.0206 27.2065 43.8081Z" fill="#242629"/>
<path d="M21.8953 25.4004C21.8953 26.7867 20.8155 27.9106 19.4835 27.9106C18.1515 27.9106 17.0718 26.7867 17.0718 25.4004" stroke="#242629" stroke-width="1.5" stroke-miterlimit="10" stroke-linecap="round" stroke-linejoin="round"/>
<path d="M29.312 25.4004C29.312 26.7867 30.3918 27.9106 31.7238 27.9106C33.0557 27.9106 34.1355 26.7867 34.1355 25.4004" stroke="#242629" stroke-width="1.5" stroke-miterlimit="10" stroke-linecap="round" stroke-linejoin="round"/>
<path d="M25.1782 10.0352C25.1782 10.0352 27.5131 10.0352 31.1347 10.0352C34.7562 10.0352 40.6339 13.2877 40.6339 20.9536C40.6339 28.6195 35.7158 32.5447 35.7158 36.7058C35.7158 40.8669 35.7158 42.9361 35.7158 42.9361" stroke="#242629" stroke-width="1.5" stroke-miterlimit="10" stroke-linecap="round" stroke-linejoin="round"/>
</svg>
